<svg xmlns="http://www.w3.org/2000/svg" viewBox="0 0 760 560" width="760" height="560"
     role="img" aria-labelledby="t-dp3 d-dp3" font-family="IBM Plex Sans, system-ui, sans-serif">
  <title id="t-dp3">Plan en coupe</title>
  <desc id="d-dp3">Extrait de plan en coupe : le profil du terrain avant et après travaux, la construction existante et le projet en vert, avec la hauteur cotée. Projet fictif.</desc>
  <rect width="760" height="560" fill="#FBFCFD"/>
  <rect x="14" y="14" width="732" height="532" fill="none" stroke="#9FADBC" stroke-width="1"/>
  <rect x="22" y="22" width="716" height="516" fill="none" stroke="#C9D3DD" stroke-width=".8"/>
  <path d="M40 380 L720 380" stroke="#14233B" stroke-width="2"/>
  <path d="M40 392 L720 392" stroke="#9FADBC" stroke-width="1" stroke-dasharray="6 5"/>
  <text x="46" y="412" fill="#55617A" font-size="11">Terrain naturel avant travaux</text>
  <path d="M40 380 Q220 356 400 372 T720 366" stroke="#55617A" stroke-width="1.8" fill="none"/>
  <rect x="180" y="200" width="230" height="180" fill="#EAEEF2" stroke="#14233B" stroke-width="2"/>
  <path d="M170 200 L295 118 L420 200 Z" fill="#EAEEF2" stroke="#14233B" stroke-width="2"/>
  <text x="295" y="300" text-anchor="middle" fill="#14233B" font-size="12.5" font-weight="600">Existant</text>
  <rect x="430" y="252" width="180" height="128" fill="#E4F5EC" stroke="#128A5A" stroke-width="2.5"/>
  <path d="M420 252 L520 196 L620 252 Z" fill="#E4F5EC" stroke="#128A5A" stroke-width="2.5"/>
  <text x="520" y="322" text-anchor="middle" fill="#0E6E48" font-size="12.5" font-weight="600">Projet</text>
  <g stroke="#55617A" stroke-width="1.2" marker-start="url(#b)" marker-end="url(#b)">
    <path d="M650 196V380"/>
  </g>
  <defs><marker id="b" markerWidth="8" markerHeight="8" refX="4" refY="4" orient="auto"><path d="M1 1L7 4L1 7Z" fill="#55617A"/></marker></defs>
  <text x="662" y="292" fill="#55617A" font-size="11" font-family="IBM Plex Mono, monospace">3,80 m</text>
  <text x="46" y="70" fill="#55617A" font-size="11.5">Profil du terrain, avant et après travaux</text>
  <!-- cartouche -->
  <g transform="translate(22,490)">
    <rect x="0" y="0" width="716" height="48" fill="#EAEEF2" stroke="#C9D3DD" stroke-width=".8"/>
    <text x="14" y="20" fill="#128A5A" font-family="IBM Plex Mono, monospace" font-size="10.5" letter-spacing="1.2">DP3 · PCMI3</text>
    <text x="14" y="37" fill="#14233B" font-size="13" font-weight="600">Plan en coupe</text>
    <text x="702" y="20" text-anchor="end" fill="#8791A6" font-family="IBM Plex Mono, monospace" font-size="9.5">EXEMPLE URBIZEN</text>
    <text x="702" y="37" text-anchor="end" fill="#8791A6" font-size="10.5">Illustration — projet fictif</text>
  </g>
</svg>
